<svg width="1200" height="900" viewBox="0 0 1200 900" fill="none" xmlns="http://www.w3.org/2000/svg">
  <rect width="1200" height="900" fill="#F7FBFF"/>
  <rect x="0" y="700" width="1200" height="200" fill="#05080C"/>
  <circle cx="598" cy="274" r="132" fill="#00AEEF" fill-opacity="0.16"/>
  <path d="M598 170L635 285H756L658 356L695 470L598 398L501 470L538 356L440 285H561L598 170Z" fill="#05080C"/>
  <path d="M320 594C320 482.438 410.438 392 522 392H678C789.562 392 880 482.438 880 594V650H320V594Z" fill="#FFFFFF" stroke="#05080C" stroke-width="12"/>
  <path d="M410 650C410 540.095 499.095 451 609 451H611C720.905 451 810 540.095 810 650V650H410V650Z" fill="#00AEEF" fill-opacity="0.72"/>
  <path d="M250 720H950" stroke="#00AEEF" stroke-width="18" stroke-linecap="round"/>
  <path d="M210 778H990" stroke="#FFFFFF" stroke-opacity="0.72" stroke-width="18" stroke-linecap="round"/>
</svg>
