<svg width="1600" height="1200" viewBox="0 0 1600 1200" fill="none" xmlns="http://www.w3.org/2000/svg">
  <rect width="1600" height="1200" fill="#F7FBFF"/>
  <rect x="0" y="820" width="1600" height="380" fill="#05080C"/>
  <circle cx="1240" cy="235" r="104" fill="#00AEEF" fill-opacity="0.14"/>
  <circle cx="1322" cy="180" r="34" fill="#00AEEF"/>
  <path d="M110 184H720L430 755L110 184Z" fill="#05080C"/>
  <path d="M822 184H720L448 755H566L822 184Z" fill="#05080C"/>
  <path d="M230 244H652L430 676L230 244Z" fill="#FFFFFF"/>
  <rect x="306" y="304" width="20" height="214" rx="10" fill="#00AEEF"/>
  <rect x="346" y="304" width="20" height="304" rx="10" fill="#00AEEF"/>
  <rect x="386" y="304" width="20" height="254" rx="10" fill="#00AEEF"/>
  <rect x="426" y="304" width="20" height="330" rx="10" fill="#00AEEF"/>
  <rect x="466" y="304" width="20" height="278" rx="10" fill="#00AEEF"/>
  <rect x="506" y="304" width="20" height="224" rx="10" fill="#00AEEF"/>
  <path d="M184 214H792" stroke="#05080C" stroke-width="28" stroke-linecap="round"/>
  <rect x="872" y="312" width="560" height="24" rx="12" fill="#05080C"/>
  <rect x="872" y="372" width="420" height="22" rx="11" fill="#05080C"/>
  <rect x="872" y="430" width="344" height="18" rx="9" fill="#00AEEF"/>
  <rect x="872" y="852" width="272" height="24" rx="12" fill="#00AEEF"/>
  <rect x="872" y="904" width="388" height="18" rx="9" fill="#FFFFFF" fill-opacity="0.8"/>
  <rect x="872" y="950" width="320" height="18" rx="9" fill="#FFFFFF" fill-opacity="0.52"/>
</svg>
