<svg width="1200" height="900" viewBox="0 0 1200 900" fill="none" xmlns="http://www.w3.org/2000/svg">
  <rect width="1200" height="900" fill="#F7FBFF"/>
  <rect x="0" y="670" width="1200" height="230" fill="#05080C"/>
  <path d="M216 448H876C916.869 448 950 481.131 950 522V648H142V522C142 481.131 175.131 448 216 448Z" fill="#FFFFFF" stroke="#05080C" stroke-width="12"/>
  <path d="M286 332H780C816.451 332 846 361.549 846 398V448H220V398C220 361.549 249.549 332 286 332Z" fill="#05080C"/>
  <circle cx="308" cy="670" r="62" fill="#05080C"/>
  <circle cx="784" cy="670" r="62" fill="#05080C"/>
  <circle cx="308" cy="670" r="28" fill="#00AEEF"/>
  <circle cx="784" cy="670" r="28" fill="#00AEEF"/>
  <rect x="310" y="380" width="130" height="52" rx="16" fill="#00AEEF"/>
  <rect x="472" y="380" width="130" height="52" rx="16" fill="#00AEEF" fill-opacity="0.7"/>
  <rect x="634" y="380" width="130" height="52" rx="16" fill="#00AEEF" fill-opacity="0.48"/>
  <circle cx="932" cy="180" r="78" fill="#00AEEF" fill-opacity="0.16"/>
  <path d="M120 750H1070" stroke="#00AEEF" stroke-width="14" stroke-linecap="round"/>
</svg>
